<svg id="svg" version="1.1" xmlns="http://www.w3.org/2000/svg" xmlns:xlink="http://www.w3.org/1999/xlink" width="400" height="300" viewBox="0, 0, 400,300"><g id="svgg"><path id="path0" d="M218.428 126.407 C 218.000 126.778,217.559 127.453,217.447 127.907 C 217.335 128.361,217.043 128.732,216.798 128.732 C 216.196 128.732,216.185 130.787,216.786 131.017 C 217.460 131.276,217.646 132.807,217.255 134.880 C 216.917 136.670,216.933 136.813,217.540 137.420 C 218.133 138.013,218.168 138.260,217.979 140.581 C 217.805 142.724,217.850 143.175,218.282 143.606 C 218.712 144.036,218.758 144.476,218.582 146.488 C 218.399 148.585,218.439 148.910,218.923 149.263 C 219.343 149.570,219.464 150.040,219.443 151.276 C 219.428 152.163,219.553 153.056,219.721 153.262 C 219.888 153.467,219.958 153.990,219.875 154.424 C 219.761 155.021,219.862 155.249,220.290 155.361 C 220.644 155.454,220.855 155.776,220.855 156.224 C 220.855 156.660,221.031 156.939,221.305 156.939 C 221.585 156.939,221.755 156.656,221.755 156.189 C 221.755 155.675,221.921 155.439,222.281 155.438 C 223.033 155.437,223.230 146.020,222.486 145.603 C 221.866 145.256,221.610 142.539,222.000 140.435 C 222.271 138.972,222.235 138.670,221.687 137.779 C 221.131 136.875,221.085 136.449,221.234 133.578 C 221.364 131.056,221.310 130.301,220.977 129.996 C 220.727 129.766,220.555 129.022,220.555 128.167 C 220.555 127.151,220.393 126.578,220.006 126.228 C 219.317 125.605,219.357 125.600,218.428 126.407 M207.265 130.233 C 207.150 130.670,206.856 130.833,206.177 130.833 C 205.184 130.833,203.451 132.110,203.451 132.842 C 203.451 133.068,203.254 133.328,203.014 133.420 C 202.706 133.538,202.629 133.851,202.755 134.478 C 202.901 135.210,202.821 135.398,202.305 135.533 C 201.785 135.669,201.709 135.853,201.861 136.613 C 202.023 137.421,201.973 137.510,201.444 137.372 C 201.056 137.270,200.717 137.418,200.484 137.791 C 200.246 138.173,199.931 138.306,199.551 138.185 C 199.235 138.085,198.656 138.213,198.264 138.470 C 197.872 138.727,197.473 138.858,197.376 138.762 C 197.280 138.665,196.886 138.784,196.500 139.024 C 195.160 139.860,192.309 141.335,192.035 141.335 C 191.660 141.335,188.231 144.884,187.613 145.911 C 187.341 146.365,186.944 146.737,186.732 146.737 C 186.124 146.737,186.274 148.465,186.940 149.130 C 187.266 149.457,187.721 149.652,187.951 149.564 C 188.210 149.464,188.436 149.664,188.548 150.090 C 188.690 150.635,188.804 150.701,189.097 150.407 C 189.597 149.908,189.947 149.941,189.947 150.488 C 189.947 150.926,190.705 151.077,192.273 150.949 C 192.988 150.892,193.207 151.389,192.573 151.631 C 192.367 151.710,193.049 151.778,194.088 151.782 C 195.196 151.786,196.190 151.955,196.489 152.189 C 196.948 152.548,196.958 152.536,196.587 152.063 C 196.218 151.592,196.256 151.538,196.963 151.538 C 197.637 151.538,197.749 151.667,197.749 152.438 C 197.749 152.933,197.624 153.338,197.470 153.338 C 197.317 153.338,197.148 153.639,197.095 154.006 C 197.042 154.373,196.696 154.824,196.326 155.008 C 195.956 155.192,195.386 155.650,195.060 156.026 C 194.734 156.402,194.284 156.640,194.061 156.555 C 193.838 156.469,193.492 156.661,193.292 156.981 C 193.092 157.301,192.797 157.481,192.636 157.382 C 192.475 157.283,192.259 157.423,192.155 157.695 C 192.042 157.988,191.747 158.131,191.426 158.047 C 191.129 157.969,190.814 158.093,190.726 158.323 C 190.638 158.552,190.300 158.740,189.975 158.740 C 189.649 158.740,189.291 158.887,189.180 159.068 C 189.068 159.249,188.662 159.336,188.277 159.263 C 187.848 159.181,187.513 159.295,187.413 159.557 C 187.307 159.831,186.920 159.951,186.335 159.890 C 185.774 159.831,185.318 159.962,185.153 160.230 C 184.985 160.500,184.492 160.639,183.849 160.596 C 183.136 160.548,182.759 160.673,182.633 161.002 C 182.485 161.386,182.182 161.438,181.064 161.270 C 180.066 161.120,179.611 161.171,179.438 161.452 C 179.250 161.755,177.710 161.830,172.494 161.790 C 168.808 161.762,165.615 161.739,165.399 161.740 C 165.183 161.740,165.089 161.605,165.191 161.440 C 165.307 161.254,164.734 161.140,163.677 161.140 C 162.345 161.140,162.011 161.049,162.137 160.722 C 162.263 160.392,162.046 160.337,161.119 160.461 C 160.190 160.586,159.940 160.521,159.940 160.158 C 159.940 159.844,159.748 159.746,159.340 159.853 C 158.911 159.965,158.740 159.862,158.740 159.493 C 158.740 159.148,158.584 159.035,158.273 159.155 C 157.781 159.343,156.366 157.994,156.349 157.320 C 156.343 157.117,156.031 156.873,155.656 156.779 C 154.820 156.569,154.501 152.138,155.321 152.138 C 155.551 152.138,155.739 151.869,155.739 151.540 C 155.739 150.784,158.220 148.237,158.956 148.237 C 159.259 148.237,159.702 147.967,159.940 147.637 C 160.178 147.307,160.613 147.037,160.906 147.037 C 161.200 147.037,161.440 146.902,161.440 146.737 C 161.440 146.572,161.778 146.437,162.191 146.437 C 162.676 146.437,162.941 146.268,162.941 145.960 C 162.941 145.573,163.179 145.516,164.216 145.656 C 164.917 145.751,165.323 145.752,165.116 145.658 C 164.396 145.329,164.749 144.936,165.766 144.936 C 166.330 144.936,166.860 144.767,166.944 144.561 C 167.058 144.279,167.175 144.297,167.414 144.636 C 167.630 144.941,167.734 144.965,167.737 144.711 C 167.740 144.505,168.080 144.336,168.492 144.336 C 168.905 144.336,169.242 144.201,169.242 144.036 C 169.242 143.871,169.858 143.736,170.610 143.736 C 171.446 143.736,171.906 143.619,171.793 143.436 C 171.676 143.247,172.474 143.121,173.951 143.095 C 175.240 143.072,175.990 142.996,175.619 142.924 C 173.924 142.598,175.226 142.236,178.095 142.236 C 179.995 142.236,181.245 142.116,181.245 141.935 C 181.245 141.770,181.583 141.635,181.995 141.635 C 183.042 141.635,183.026 140.527,181.973 140.126 C 181.548 139.965,180.998 139.631,180.751 139.384 C 180.116 138.748,175.484 138.729,175.727 139.363 C 175.947 139.935,173.681 140.277,171.309 140.029 C 169.819 139.873,169.542 139.919,169.542 140.320 C 169.542 140.700,169.270 140.774,168.192 140.688 C 167.449 140.629,166.842 140.678,166.842 140.797 C 166.842 141.304,165.665 141.630,164.894 141.336 C 164.328 141.121,164.164 141.130,164.312 141.370 C 164.596 141.829,163.831 142.245,163.059 142.051 C 162.646 141.947,162.358 142.057,162.241 142.363 C 162.141 142.623,161.793 142.836,161.467 142.836 C 161.142 142.836,160.792 142.971,160.690 143.136 C 160.588 143.301,160.243 143.436,159.922 143.436 C 159.602 143.436,159.340 143.544,159.340 143.676 C 159.340 143.808,158.833 144.098,158.215 144.320 C 156.247 145.029,151.238 149.451,151.238 150.481 C 151.238 150.732,151.093 150.938,150.916 150.938 C 150.739 150.938,150.619 151.242,150.649 151.613 C 150.754 152.898,150.636 153.338,150.188 153.338 C 149.849 153.338,149.737 153.702,149.737 154.807 C 149.737 155.835,149.872 156.327,150.188 156.448 C 150.435 156.543,150.638 156.972,150.638 157.401 C 150.638 157.831,150.840 158.385,151.087 158.632 C 151.335 158.879,151.623 159.423,151.728 159.841 C 151.832 160.259,152.364 161.046,152.908 161.590 C 153.453 162.135,153.817 162.662,153.718 162.761 C 153.619 162.860,153.865 162.945,154.264 162.950 C 155.152 162.962,156.170 163.686,155.904 164.117 C 155.776 164.324,156.020 164.370,156.620 164.250 C 157.298 164.114,157.578 164.192,157.717 164.555 C 157.820 164.822,158.227 165.041,158.622 165.041 C 159.017 165.041,159.340 165.176,159.340 165.341 C 159.340 165.506,159.869 165.641,160.515 165.641 C 161.162 165.641,161.738 165.785,161.797 165.960 C 161.863 166.158,163.064 166.275,164.972 166.268 C 167.720 166.258,168.734 166.512,167.667 166.943 C 167.461 167.026,168.727 167.105,170.481 167.118 C 172.971 167.137,173.752 167.043,174.044 166.692 C 174.332 166.344,175.129 166.242,177.531 166.242 C 179.407 166.242,180.645 166.122,180.645 165.941 C 180.645 165.776,180.848 165.641,181.095 165.641 C 181.343 165.641,181.545 165.803,181.545 166.002 C 181.545 166.282,181.625 166.282,181.905 166.002 C 182.104 165.803,182.644 165.641,183.106 165.641 C 183.568 165.641,183.946 165.506,183.946 165.341 C 183.946 165.176,184.554 165.041,185.296 165.041 C 186.039 165.041,186.647 164.906,186.647 164.741 C 186.647 164.576,187.048 164.441,187.537 164.441 C 188.193 164.441,188.384 164.326,188.261 164.006 C 188.127 163.657,188.308 163.605,189.171 163.745 C 190.038 163.885,190.248 163.824,190.248 163.430 C 190.248 163.086,190.516 162.941,191.148 162.941 C 191.643 162.941,192.048 162.806,192.048 162.641 C 192.048 162.476,192.386 162.341,192.798 162.341 C 193.211 162.341,193.548 162.206,193.548 162.041 C 193.548 161.875,193.818 161.740,194.149 161.740 C 194.479 161.740,194.749 161.587,194.749 161.398 C 194.749 160.937,195.676 160.261,196.324 160.250 C 196.613 160.244,196.849 160.023,196.849 159.758 C 196.849 159.437,197.011 159.338,197.336 159.462 C 197.823 159.649,199.249 158.325,199.249 157.685 C 199.250 157.518,199.768 157.061,200.401 156.670 C 201.321 156.101,201.525 155.816,201.416 155.248 C 201.339 154.845,201.425 154.539,201.615 154.539 C 201.800 154.539,201.950 154.218,201.950 153.825 C 201.950 153.433,202.153 152.944,202.401 152.738 C 202.968 152.267,202.988 150.971,202.430 150.758 C 202.199 150.669,201.946 150.355,201.869 150.059 C 201.792 149.764,201.306 149.335,200.789 149.107 C 200.273 148.878,199.850 148.503,199.850 148.274 C 199.850 147.962,199.550 147.898,198.647 148.019 C 197.663 148.151,197.365 148.069,197.012 147.564 C 196.625 147.012,196.373 146.966,194.614 147.131 C 193.005 147.281,192.648 147.235,192.648 146.875 C 192.648 146.634,192.793 146.437,192.970 146.437 C 193.319 146.437,194.149 145.698,194.149 145.386 C 194.149 145.028,195.003 144.336,195.445 144.336 C 195.687 144.336,195.966 144.124,196.065 143.865 C 196.186 143.552,196.448 143.458,196.849 143.586 C 197.258 143.716,197.513 143.618,197.642 143.284 C 197.773 142.942,198.044 142.845,198.528 142.966 C 199.042 143.095,199.315 142.974,199.564 142.508 C 199.807 142.056,200.109 141.915,200.625 142.014 C 201.022 142.090,201.491 141.978,201.667 141.765 C 201.876 141.514,202.363 141.440,203.066 141.554 C 203.840 141.680,204.084 141.631,203.930 141.382 C 203.786 141.149,204.015 141.035,204.633 141.035 C 205.249 141.035,205.551 140.887,205.551 140.585 C 205.551 140.044,206.743 139.971,206.772 140.510 C 206.783 140.716,206.943 140.573,207.126 140.191 C 207.381 139.663,207.627 139.539,208.156 139.672 C 208.655 139.797,208.852 139.717,208.852 139.391 C 208.852 139.082,209.150 138.935,209.774 138.935 C 210.842 138.935,211.553 138.344,211.553 137.456 C 211.553 137.114,211.704 136.834,211.888 136.834 C 212.080 136.834,212.153 136.566,212.059 136.205 C 211.846 135.393,212.105 134.734,212.635 134.734 C 212.900 134.734,213.053 134.403,213.053 133.833 C 213.053 133.225,212.904 132.933,212.594 132.933 C 212.341 132.933,212.049 132.697,211.946 132.408 C 211.662 131.620,210.880 130.955,209.967 130.726 C 209.519 130.613,209.152 130.321,209.152 130.077 C 209.152 129.357,207.457 129.497,207.265 130.233 M246.287 148.900 C 245.833 149.348,245.461 149.926,245.461 150.185 C 245.461 150.444,245.267 150.731,245.030 150.822 C 244.793 150.913,244.661 151.149,244.737 151.347 C 244.956 151.918,240.680 156.039,239.868 156.039 C 239.643 156.039,239.460 156.168,239.460 156.325 C 239.460 156.660,236.793 157.924,235.975 157.977 C 235.791 157.989,235.420 158.181,235.151 158.405 C 234.882 158.628,234.391 158.740,234.060 158.653 C 233.668 158.551,233.458 158.643,233.458 158.918 C 233.458 159.164,233.156 159.340,232.733 159.340 C 232.334 159.340,231.963 159.471,231.908 159.631 C 231.853 159.791,231.470 159.960,231.058 160.006 C 230.645 160.052,230.119 160.269,229.889 160.487 C 229.658 160.707,229.170 160.808,228.795 160.714 C 228.339 160.599,228.060 160.700,227.935 161.026 C 227.803 161.368,227.486 161.469,226.837 161.373 C 226.155 161.273,225.846 161.385,225.615 161.818 C 225.419 162.184,225.097 162.343,224.742 162.250 C 224.432 162.169,224.014 162.300,223.813 162.542 C 223.612 162.784,223.194 162.916,222.883 162.835 C 222.560 162.750,222.249 162.869,222.155 163.114 C 222.065 163.349,221.803 163.541,221.573 163.541 C 220.943 163.541,221.069 164.027,221.919 164.878 C 222.837 165.795,225.356 166.012,225.356 165.173 C 225.356 164.774,225.665 164.735,227.457 164.912 C 229.342 165.098,229.557 165.065,229.557 164.589 C 229.557 164.134,229.747 164.086,230.908 164.245 C 231.984 164.392,232.258 164.339,232.258 163.985 C 232.258 163.733,232.532 163.541,232.890 163.541 C 233.361 163.541,233.473 163.671,233.328 164.049 C 233.157 164.495,233.208 164.489,233.746 164.003 C 234.083 163.698,234.367 163.570,234.378 163.719 C 234.388 163.869,234.511 163.709,234.650 163.364 C 234.854 162.860,235.095 162.765,235.874 162.879 C 236.549 162.978,236.780 162.918,236.634 162.681 C 236.490 162.449,236.810 162.341,237.642 162.341 C 238.312 162.341,238.860 162.206,238.860 162.041 C 238.860 161.875,239.197 161.740,239.610 161.740 C 240.070 161.740,240.360 161.570,240.360 161.300 C 240.360 161.032,240.536 160.927,240.808 161.031 C 241.063 161.129,241.334 160.996,241.440 160.721 C 241.541 160.457,241.821 160.240,242.060 160.240 C 242.314 160.240,242.406 160.095,242.281 159.893 C 242.134 159.655,242.270 159.599,242.714 159.715 C 243.107 159.818,243.361 159.745,243.361 159.528 C 243.361 159.033,244.528 158.084,244.874 158.297 C 245.031 158.394,245.316 158.128,245.508 157.706 C 245.700 157.284,246.048 156.939,246.281 156.939 C 246.909 156.939,247.645 156.088,247.452 155.585 C 247.359 155.344,247.616 154.787,248.023 154.349 C 248.429 153.910,248.762 153.379,248.762 153.169 C 248.762 152.960,248.928 152.733,249.130 152.666 C 250.192 152.312,248.925 148.837,247.734 148.837 C 247.498 148.837,247.262 148.668,247.209 148.462 C 247.147 148.225,246.809 148.386,246.287 148.900 " stroke="none" fill="#fbfbfb" fill-rule="evenodd"></path><path id="path1" d="M218.980 124.441 C 218.691 124.515,218.455 124.700,218.455 124.853 C 218.455 125.006,218.117 125.131,217.704 125.131 C 217.154 125.131,216.954 125.291,216.954 125.731 C 216.954 126.062,216.819 126.332,216.654 126.332 C 216.489 126.332,216.354 126.669,216.354 127.082 C 216.354 127.549,216.524 127.832,216.804 127.832 C 217.052 127.832,217.254 127.625,217.254 127.372 C 217.254 126.815,218.918 125.131,219.469 125.131 C 220.177 125.131,220.855 126.207,220.855 127.330 C 220.855 128.110,220.987 128.432,221.305 128.432 C 221.651 128.432,221.755 128.049,221.755 126.782 C 221.755 125.558,221.646 125.131,221.330 125.131 C 221.097 125.131,220.860 125.014,220.805 124.871 C 220.671 124.521,219.629 124.276,218.980 124.441 M204.126 130.081 C 203.920 130.316,203.751 130.616,203.751 130.749 C 203.751 130.882,203.413 131.244,203.001 131.554 C 202.588 131.864,202.251 132.301,202.251 132.525 C 202.251 132.750,202.116 132.933,201.950 132.933 C 201.785 132.933,201.650 133.350,201.650 133.858 C 201.650 135.007,202.357 134.904,202.496 133.735 C 202.548 133.294,202.717 132.933,202.871 132.933 C 203.025 132.933,203.151 132.686,203.151 132.384 C 203.151 132.082,203.488 131.654,203.901 131.433 C 204.314 131.212,204.651 130.919,204.651 130.782 C 204.651 130.645,204.989 130.533,205.401 130.533 C 205.868 130.533,206.152 130.363,206.152 130.083 C 206.152 129.499,204.640 129.498,204.126 130.081 M210.053 130.083 C 210.053 130.330,210.273 130.533,210.543 130.533 C 210.813 130.533,211.347 130.870,211.729 131.283 C 212.112 131.695,212.566 132.033,212.739 132.033 C 213.212 132.033,213.117 131.210,212.593 130.770 C 212.339 130.557,211.944 130.214,211.714 130.008 C 211.132 129.486,210.053 129.534,210.053 130.083 M221.642 131.175 C 221.279 132.991,221.429 135.539,221.924 135.949 C 222.311 136.270,222.376 136.962,222.299 139.936 C 222.229 142.615,222.301 143.566,222.581 143.660 C 222.863 143.755,222.956 145.159,222.956 149.312 C 222.956 152.797,223.067 154.839,223.256 154.839 C 223.445 154.839,223.556 152.794,223.556 149.305 C 223.556 145.940,223.438 143.699,223.256 143.586 C 223.074 143.473,222.956 141.282,222.956 138.017 C 222.956 134.628,222.845 132.633,222.656 132.633 C 222.491 132.633,222.356 132.169,222.356 131.601 C 222.356 130.258,221.882 129.976,221.642 131.175 M216.390 134.359 C 216.451 137.355,216.818 138.218,216.997 135.784 C 217.160 133.551,217.050 132.633,216.619 132.633 C 216.473 132.633,216.370 133.410,216.390 134.359 M200.922 136.403 C 200.255 136.893,200.433 137.228,201.283 137.084 C 201.687 137.015,201.811 136.829,201.684 136.481 C 201.523 136.040,201.430 136.031,200.922 136.403 M212.374 136.113 C 212.103 136.384,212.476 137.156,212.785 136.965 C 212.932 136.874,213.053 136.604,213.053 136.366 C 213.053 135.924,212.696 135.791,212.374 136.113 M198.350 137.434 C 198.350 137.599,198.620 137.734,198.950 137.734 C 199.280 137.734,199.648 137.745,199.767 137.757 C 199.887 137.769,200.033 137.634,200.093 137.457 C 200.154 137.273,199.801 137.134,199.275 137.134 C 198.766 137.134,198.350 137.269,198.350 137.434 M196.249 138.035 C 196.249 138.200,196.519 138.335,196.849 138.335 C 197.179 138.335,197.449 138.200,197.449 138.035 C 197.449 137.869,197.179 137.734,196.849 137.734 C 196.519 137.734,196.249 137.869,196.249 138.035 M195.049 138.785 C 195.049 139.032,195.251 139.235,195.499 139.235 C 195.746 139.235,195.949 139.032,195.949 138.785 C 195.949 138.537,195.746 138.335,195.499 138.335 C 195.251 138.335,195.049 138.537,195.049 138.785 M179.970 138.857 C 181.361 138.936,181.845 139.076,181.845 139.399 C 181.845 139.683,182.159 139.835,182.746 139.835 C 183.241 139.835,183.646 139.706,183.646 139.549 C 183.646 139.094,181.543 138.633,179.745 138.694 L 178.095 138.750 179.970 138.857 M170.043 139.135 C 169.536 139.641,169.979 139.835,171.643 139.835 C 173.043 139.835,173.443 139.735,173.443 139.385 C 173.443 138.917,170.478 138.699,170.043 139.135 M193.748 139.135 C 193.403 139.480,193.530 139.835,193.998 139.835 C 194.246 139.835,194.449 139.632,194.449 139.385 C 194.449 138.916,194.094 138.790,193.748 139.135 M216.959 140.510 C 216.965 142.547,217.398 143.305,217.658 141.734 C 217.976 139.808,217.897 138.935,217.404 138.935 C 217.061 138.935,216.955 139.308,216.959 140.510 M166.542 140.135 C 166.542 140.300,167.014 140.435,167.592 140.435 C 168.170 140.435,168.642 140.300,168.642 140.135 C 168.642 139.970,168.170 139.835,167.592 139.835 C 167.014 139.835,166.542 139.970,166.542 140.135 M192.348 140.135 C 192.348 140.300,192.551 140.435,192.798 140.435 C 193.046 140.435,193.248 140.300,193.248 140.135 C 193.248 139.970,193.046 139.835,192.798 139.835 C 192.551 139.835,192.348 139.970,192.348 140.135 M164.441 140.735 C 164.441 140.900,164.779 141.035,165.191 141.035 C 165.604 141.035,165.941 140.900,165.941 140.735 C 165.941 140.570,165.604 140.435,165.191 140.435 C 164.779 140.435,164.441 140.570,164.441 140.735 M190.627 141.147 C 189.607 141.817,189.333 142.536,190.098 142.536 C 190.345 142.536,190.548 142.383,190.548 142.196 C 190.548 142.009,190.839 141.603,191.196 141.294 C 192.125 140.488,191.770 140.396,190.627 141.147 M162.341 141.318 C 162.341 141.749,162.832 141.958,163.364 141.754 C 164.096 141.473,163.930 141.035,163.091 141.035 C 162.678 141.035,162.341 141.162,162.341 141.318 M160.448 141.827 C 160.135 142.140,160.532 142.536,161.158 142.536 C 161.478 142.536,161.740 142.333,161.740 142.086 C 161.740 141.640,160.819 141.456,160.448 141.827 M158.872 142.676 C 158.552 142.918,158.087 143.125,157.839 143.136 C 157.115 143.166,156.255 143.957,156.505 144.362 C 156.671 144.631,156.833 144.587,157.121 144.194 C 157.349 143.882,157.708 143.737,157.986 143.843 C 158.265 143.950,158.533 143.841,158.633 143.581 C 158.727 143.336,159.060 143.136,159.372 143.136 C 159.684 143.136,159.940 142.933,159.940 142.686 C 159.940 142.118,159.614 142.115,158.872 142.676 M200.225 142.611 C 200.294 142.817,200.598 142.986,200.900 142.986 C 201.203 142.986,201.507 142.817,201.575 142.611 C 201.655 142.373,201.407 142.236,200.900 142.236 C 200.393 142.236,200.146 142.373,200.225 142.611 M188.736 143.152 C 188.504 143.473,188.191 143.736,188.041 143.736 C 187.730 143.736,186.348 145.267,186.347 145.611 C 186.347 145.735,186.482 145.836,186.647 145.836 C 186.812 145.836,186.947 145.701,186.947 145.536 C 186.947 145.371,187.149 145.236,187.397 145.236 C 187.644 145.236,187.847 145.088,187.847 144.907 C 187.847 144.725,188.256 144.195,188.755 143.729 C 189.254 143.262,189.549 142.810,189.410 142.724 C 189.270 142.638,188.967 142.831,188.736 143.152 M198.350 143.375 C 198.350 143.675,199.722 143.664,200.025 143.361 C 200.149 143.237,199.822 143.136,199.300 143.136 C 198.777 143.136,198.350 143.243,198.350 143.375 M155.139 144.636 C 155.139 144.801,154.936 144.936,154.689 144.936 C 154.441 144.936,154.239 145.123,154.239 145.351 C 154.239 145.580,153.935 145.867,153.563 145.990 L 152.888 146.213 153.564 146.346 C 154.225 146.476,154.392 146.363,155.560 145.002 C 156.066 144.413,156.075 144.336,155.635 144.336 C 155.362 144.336,155.139 144.471,155.139 144.636 M217.616 145.644 C 217.527 146.572,217.818 147.637,218.160 147.637 C 218.607 147.637,218.519 145.325,218.066 145.151 C 217.831 145.061,217.653 145.256,217.616 145.644 M193.548 146.737 C 193.548 146.902,193.920 147.035,194.374 147.032 C 195.017 147.029,195.099 146.963,194.749 146.737 C 194.162 146.357,193.548 146.357,193.548 146.737 M151.838 147.487 C 151.532 147.856,151.553 147.937,151.951 147.937 C 152.219 147.937,152.438 147.734,152.438 147.487 C 152.438 147.239,152.387 147.037,152.325 147.037 C 152.263 147.037,152.043 147.239,151.838 147.487 M198.050 147.337 C 198.050 147.502,198.522 147.637,199.100 147.637 C 199.767 147.637,200.150 147.781,200.150 148.031 C 200.150 148.248,200.623 148.611,201.200 148.837 C 201.778 149.064,202.251 149.427,202.251 149.643 C 202.251 149.860,202.386 150.038,202.551 150.038 C 202.716 150.038,202.851 150.807,202.851 151.748 C 202.851 152.831,202.956 153.354,203.136 153.173 C 204.322 151.987,202.464 147.637,200.772 147.637 C 200.430 147.637,200.150 147.502,200.150 147.337 C 200.150 147.172,199.677 147.037,199.100 147.037 C 198.522 147.037,198.050 147.172,198.050 147.337 M245.027 148.640 C 244.606 149.192,244.261 149.800,244.261 149.991 C 244.261 150.182,244.126 150.338,243.961 150.338 C 243.796 150.338,243.661 150.608,243.661 150.938 C 243.661 151.268,243.809 151.538,243.989 151.538 C 244.170 151.538,244.388 151.268,244.474 150.938 C 244.561 150.608,244.750 150.338,244.896 150.338 C 245.042 150.338,245.161 150.100,245.161 149.810 C 245.161 149.519,245.431 149.113,245.761 148.907 C 246.373 148.525,246.594 147.637,246.077 147.637 C 245.920 147.637,245.448 148.089,245.027 148.640 M247.862 148.087 C 247.862 148.335,248.065 148.537,248.312 148.537 C 248.560 148.537,248.762 148.672,248.762 148.837 C 248.762 149.002,248.965 149.137,249.212 149.137 C 249.802 149.137,249.873 152.913,249.287 153.122 C 249.081 153.196,249.007 153.358,249.123 153.483 C 250.215 154.658,250.632 150.627,249.607 148.803 C 248.954 147.640,247.862 147.193,247.862 148.087 M217.854 149.270 C 217.854 150.003,217.989 150.686,218.155 150.788 C 218.320 150.890,218.455 151.573,218.455 152.306 C 218.455 153.825,219.037 154.152,219.089 152.663 C 219.141 151.204,219.028 150.499,218.726 150.388 C 218.577 150.333,218.455 149.759,218.455 149.112 C 218.455 148.466,218.320 147.937,218.155 147.937 C 217.989 147.937,217.854 148.537,217.854 149.270 M150.821 148.979 C 150.555 149.385,150.338 149.856,150.338 150.027 C 150.338 150.198,150.203 150.338,150.038 150.338 C 149.872 150.338,149.737 150.810,149.737 151.388 C 149.737 151.965,149.872 152.438,150.038 152.438 C 150.203 152.438,150.338 151.965,150.338 151.388 C 150.338 150.810,150.473 150.338,150.638 150.338 C 150.803 150.338,150.938 150.068,150.938 149.737 C 150.938 149.404,151.138 149.137,151.388 149.137 C 151.880 149.137,151.997 148.671,151.571 148.407 C 151.424 148.317,151.086 148.574,150.821 148.979 M242.038 153.074 C 241.392 153.727,240.481 154.488,240.012 154.765 C 239.161 155.268,238.893 155.739,239.460 155.739 C 239.625 155.739,239.760 155.604,239.760 155.439 C 239.760 155.274,239.980 155.139,240.250 155.139 C 240.519 155.139,241.167 154.686,241.689 154.132 C 242.212 153.578,242.940 152.963,243.308 152.766 C 243.677 152.569,243.899 152.280,243.802 152.123 C 243.527 151.678,243.294 151.803,242.038 153.074 M196.919 153.038 C 196.713 153.368,196.622 153.638,196.718 153.638 C 196.943 153.638,197.749 152.834,197.749 152.610 C 197.749 152.228,197.271 152.475,196.919 153.038 M149.290 153.923 C 149.176 154.596,149.226 155.341,149.405 155.648 C 149.651 156.071,149.721 155.814,149.728 154.464 C 149.739 152.453,149.573 152.248,149.290 153.923 M154.839 153.338 C 154.839 153.503,155.041 153.638,155.289 153.638 C 155.536 153.638,155.739 153.503,155.739 153.338 C 155.739 153.173,155.536 153.038,155.289 153.038 C 155.041 153.038,154.839 153.173,154.839 153.338 M202.251 154.389 C 202.251 154.801,202.386 155.139,202.551 155.139 C 202.716 155.139,202.851 154.801,202.851 154.389 C 202.851 153.976,202.716 153.638,202.551 153.638 C 202.386 153.638,202.251 153.976,202.251 154.389 M219.055 154.689 C 219.055 155.101,219.190 155.439,219.355 155.439 C 219.520 155.439,219.655 155.101,219.655 154.689 C 219.655 154.276,219.520 153.938,219.355 153.938 C 219.190 153.938,219.055 154.276,219.055 154.689 M248.162 154.539 C 248.162 154.704,248.365 154.839,248.612 154.839 C 248.860 154.839,249.062 154.704,249.062 154.539 C 249.062 154.374,248.860 154.239,248.612 154.239 C 248.365 154.239,248.162 154.374,248.162 154.539 M194.793 155.020 C 194.247 155.638,194.599 155.932,195.185 155.346 C 195.440 155.091,195.649 154.804,195.649 154.710 C 195.649 154.395,195.203 154.556,194.793 155.020 M237.659 156.039 C 237.659 156.204,237.862 156.339,238.110 156.339 C 238.357 156.339,238.560 156.204,238.560 156.039 C 238.560 155.874,238.357 155.739,238.110 155.739 C 237.862 155.739,237.659 155.874,237.659 156.039 M222.356 156.489 C 222.356 156.737,222.491 156.939,222.656 156.939 C 222.821 156.939,222.956 156.737,222.956 156.489 C 222.956 156.242,222.821 156.039,222.656 156.039 C 222.491 156.039,222.356 156.242,222.356 156.489 M191.223 156.882 C 190.059 157.438,189.964 157.839,190.998 157.839 C 191.465 157.839,191.748 157.669,191.748 157.389 C 191.748 157.139,192.015 156.939,192.348 156.939 C 192.678 156.939,192.948 156.804,192.948 156.639 C 192.948 156.241,192.409 156.317,191.223 156.882 M201.050 156.639 C 201.050 156.804,200.848 156.939,200.600 156.939 C 200.353 156.939,200.150 157.088,200.150 157.269 C 200.150 157.450,199.726 157.994,199.209 158.478 C 198.691 158.962,198.372 159.455,198.500 159.574 C 198.627 159.693,198.792 159.621,198.866 159.415 C 198.939 159.209,199.182 159.040,199.404 159.040 C 199.627 159.040,200.117 158.601,200.494 158.065 C 200.870 157.528,201.285 157.044,201.415 156.989 C 201.755 156.845,201.705 156.339,201.350 156.339 C 201.185 156.339,201.050 156.474,201.050 156.639 M236.459 156.814 C 236.459 157.076,236.619 157.236,236.815 157.171 C 237.372 156.985,237.464 156.339,236.934 156.339 C 236.673 156.339,236.459 156.553,236.459 156.814 M235.159 157.139 C 234.822 157.476,234.936 157.839,235.377 157.839 C 235.607 157.839,235.872 157.637,235.967 157.389 C 236.141 156.938,235.544 156.754,235.159 157.139 M149.737 157.989 C 149.737 158.402,149.872 158.740,150.038 158.740 C 150.203 158.740,150.338 158.402,150.338 157.989 C 150.338 157.577,150.203 157.239,150.038 157.239 C 149.872 157.239,149.737 157.577,149.737 157.989 M189.047 158.140 C 189.047 158.305,189.250 158.440,189.497 158.440 C 189.745 158.440,189.947 158.305,189.947 158.140 C 189.947 157.974,189.745 157.839,189.497 157.839 C 189.250 157.839,189.047 157.974,189.047 158.140 M233.758 158.140 C 233.758 158.305,233.961 158.440,234.209 158.440 C 234.456 158.440,234.659 158.305,234.659 158.140 C 234.659 157.974,234.456 157.839,234.209 157.839 C 233.961 157.839,233.758 157.974,233.758 158.140 M187.397 158.740 C 187.295 158.905,187.489 159.040,187.829 159.040 C 188.169 159.040,188.447 158.905,188.447 158.740 C 188.447 158.575,188.253 158.440,188.015 158.440 C 187.777 158.440,187.499 158.575,187.397 158.740 M231.658 158.740 C 231.658 158.905,231.995 159.040,232.408 159.040 C 232.821 159.040,233.158 158.905,233.158 158.740 C 233.158 158.575,232.821 158.440,232.408 158.440 C 231.995 158.440,231.658 158.575,231.658 158.740 M185.446 159.340 C 185.097 159.566,185.185 159.632,185.839 159.635 C 186.326 159.638,186.604 159.513,186.497 159.340 C 186.266 158.967,186.023 158.967,185.446 159.340 M229.857 159.305 C 229.857 159.766,231.009 159.899,231.179 159.457 C 231.289 159.170,231.107 159.040,230.598 159.040 C 230.191 159.040,229.857 159.159,229.857 159.305 M160.840 160.090 C 160.840 160.365,160.985 160.542,161.163 160.483 C 161.340 160.423,161.485 160.247,161.485 160.090 C 161.485 159.933,161.340 159.757,161.163 159.697 C 160.985 159.638,160.840 159.815,160.840 160.090 M183.046 160.090 C 183.046 160.370,183.329 160.540,183.796 160.540 C 184.263 160.540,184.546 160.370,184.546 160.090 C 184.546 159.810,184.263 159.640,183.796 159.640 C 183.329 159.640,183.046 159.810,183.046 160.090 M227.965 159.832 C 227.652 160.145,228.049 160.540,228.675 160.540 C 228.995 160.540,229.257 160.338,229.257 160.090 C 229.257 159.645,228.336 159.461,227.965 159.832 M150.938 160.402 C 150.938 160.685,153.431 162.948,153.579 162.800 C 153.657 162.722,153.297 162.263,152.779 161.779 C 152.262 161.295,151.838 160.751,151.838 160.570 C 151.838 160.388,151.635 160.240,151.388 160.240 C 151.140 160.240,150.938 160.313,150.938 160.402 M162.845 160.724 C 162.933 160.953,163.269 161.140,163.591 161.140 C 164.300 161.140,164.078 160.672,163.268 160.460 C 162.858 160.353,162.733 160.431,162.845 160.724 M181.020 160.452 C 180.649 160.523,180.345 160.708,180.345 160.861 C 180.345 161.325,181.768 161.174,181.954 160.690 C 182.049 160.443,182.030 160.258,181.911 160.281 C 181.792 160.303,181.392 160.380,181.020 160.452 M226.032 160.439 C 225.352 160.713,225.641 161.140,226.507 161.140 C 227.062 161.140,227.357 160.984,227.357 160.690 C 227.357 160.249,226.775 160.139,226.032 160.439 M165.941 161.440 C 165.941 161.605,166.414 161.740,166.992 161.740 C 167.569 161.740,168.042 161.605,168.042 161.440 C 168.042 161.275,167.569 161.140,166.992 161.140 C 166.414 161.140,165.941 161.275,165.941 161.440 M175.844 161.440 C 175.844 161.605,176.241 161.740,176.726 161.740 C 177.212 161.740,177.692 161.605,177.794 161.440 C 177.905 161.262,177.548 161.140,176.912 161.140 C 176.325 161.140,175.844 161.275,175.844 161.440 M223.556 161.440 C 223.556 161.605,223.893 161.740,224.306 161.740 C 224.719 161.740,225.056 161.605,225.056 161.440 C 225.056 161.275,224.719 161.140,224.306 161.140 C 223.893 161.140,223.556 161.275,223.556 161.440 M221.755 162.041 C 221.755 162.206,221.451 162.341,221.079 162.341 C 220.243 162.341,219.373 163.979,219.919 164.525 C 220.167 164.773,220.255 164.649,220.255 164.051 C 220.255 163.397,220.393 163.241,220.973 163.241 C 221.368 163.241,221.765 163.049,221.855 162.814 C 221.955 162.553,222.259 162.450,222.637 162.549 C 223.074 162.663,223.256 162.568,223.256 162.226 C 223.256 161.908,222.996 161.740,222.506 161.740 C 222.093 161.740,221.755 161.875,221.755 162.041 M230.458 164.741 C 230.458 164.906,230.728 165.041,231.058 165.041 C 231.388 165.041,231.658 164.906,231.658 164.741 C 231.658 164.576,231.388 164.441,231.058 164.441 C 230.728 164.441,230.458 164.576,230.458 164.741 M220.405 165.341 C 220.507 165.506,220.853 165.641,221.173 165.641 C 221.493 165.641,221.755 165.506,221.755 165.341 C 221.755 165.176,221.410 165.041,220.988 165.041 C 220.552 165.041,220.300 165.171,220.405 165.341 M226.857 165.341 C 226.857 165.506,227.186 165.641,227.589 165.641 C 227.992 165.641,228.405 165.506,228.507 165.341 C 228.615 165.166,228.310 165.041,227.775 165.041 C 227.270 165.041,226.857 165.176,226.857 165.341 M176.744 166.642 C 176.744 166.878,177.019 167.011,177.419 166.967 C 177.791 166.925,178.263 166.880,178.470 166.867 C 179.358 166.807,178.747 166.242,177.794 166.242 C 177.119 166.242,176.744 166.384,176.744 166.642 " stroke="none" fill="#8e8e8e" fill-rule="evenodd"></path><path id="path2" d="M218.755 125.581 C 218.755 125.829,218.597 126.032,218.405 126.032 C 218.212 126.032,218.141 126.118,218.247 126.224 C 218.353 126.330,218.648 126.244,218.903 126.033 C 219.285 125.715,219.470 125.742,219.961 126.187 C 220.288 126.483,220.555 126.618,220.555 126.488 C 220.555 126.190,219.349 125.131,219.009 125.131 C 218.869 125.131,218.755 125.334,218.755 125.581 M217.254 127.482 C 217.254 127.860,217.066 128.132,216.804 128.132 C 216.557 128.132,216.354 128.267,216.354 128.432 C 216.354 128.597,216.554 128.732,216.798 128.732 C 217.256 128.732,217.773 127.350,217.440 127.018 C 217.338 126.915,217.254 127.124,217.254 127.482 M220.596 128.611 C 220.572 129.159,220.802 129.825,221.155 130.233 C 221.746 130.914,221.755 130.915,221.755 130.293 C 221.755 129.946,221.566 129.554,221.334 129.422 C 221.103 129.290,220.851 128.845,220.775 128.432 C 220.653 127.770,220.632 127.791,220.596 128.611 M206.752 130.061 C 206.752 130.296,206.515 130.557,206.227 130.641 C 205.922 130.730,206.015 130.770,206.449 130.738 C 207.169 130.685,207.764 129.632,207.074 129.632 C 206.897 129.632,206.752 129.825,206.752 130.061 M209.152 130.077 C 209.152 130.321,209.524 130.612,209.977 130.723 C 210.431 130.834,210.914 131.073,211.051 131.254 C 211.210 131.465,211.255 131.422,211.177 131.133 C 211.110 130.885,210.763 130.640,210.404 130.587 C 210.046 130.534,209.752 130.298,209.752 130.062 C 209.752 129.826,209.617 129.632,209.452 129.632 C 209.287 129.632,209.152 129.832,209.152 130.077 M204.126 131.437 C 203.590 131.925,203.151 132.518,203.151 132.754 C 203.151 132.990,202.982 133.251,202.776 133.335 C 202.481 133.454,202.482 133.491,202.783 133.510 C 202.994 133.523,203.289 133.209,203.439 132.813 C 203.590 132.418,203.966 131.911,204.275 131.688 C 204.782 131.323,205.426 130.519,205.194 130.541 C 205.143 130.546,204.662 130.949,204.126 131.437 M216.354 131.260 C 216.354 131.485,216.557 131.746,216.804 131.841 C 217.085 131.949,217.267 132.442,217.289 133.149 C 217.308 133.773,217.388 134.034,217.467 133.728 C 217.692 132.856,217.283 131.208,216.796 131.021 C 216.540 130.923,216.354 131.024,216.354 131.260 M211.821 132.108 C 211.959 132.479,212.294 132.803,212.568 132.828 C 212.956 132.862,212.965 132.841,212.609 132.731 C 212.358 132.653,212.153 132.329,212.153 132.011 C 212.153 131.693,212.022 131.433,211.863 131.433 C 211.688 131.433,211.671 131.701,211.821 132.108 M221.231 133.083 C 221.234 133.743,221.296 133.978,221.368 133.605 C 221.439 133.232,221.437 132.692,221.361 132.405 C 221.286 132.118,221.228 132.423,221.231 133.083 M202.574 134.494 C 202.561 134.774,202.314 135.142,202.026 135.310 C 201.528 135.600,201.528 135.616,202.035 135.625 C 202.620 135.635,202.997 134.976,202.753 134.368 C 202.653 134.121,202.590 134.165,202.574 134.494 M221.208 135.634 C 221.175 136.544,221.354 137.278,221.755 137.884 L 222.352 138.785 222.354 137.974 C 222.355 137.529,222.163 137.056,221.928 136.924 C 221.693 136.792,221.445 136.144,221.378 135.484 L 221.256 134.284 221.208 135.634 M212.028 135.227 C 211.924 135.498,211.910 135.791,211.996 135.877 C 212.082 135.963,212.153 135.876,212.153 135.684 C 212.153 135.491,212.356 135.334,212.603 135.334 C 212.851 135.334,213.053 135.199,213.053 135.034 C 213.053 134.540,212.232 134.695,212.028 135.227 M211.553 137.309 C 211.553 137.839,212.199 137.747,212.384 137.191 C 212.450 136.995,212.289 136.834,212.028 136.834 C 211.767 136.834,211.553 137.048,211.553 137.309 M200.150 137.584 C 200.150 137.832,199.992 138.035,199.800 138.035 C 199.607 138.035,199.537 138.121,199.643 138.227 C 199.866 138.451,200.750 137.788,200.750 137.398 C 200.750 137.253,200.615 137.134,200.450 137.134 C 200.285 137.134,200.150 137.337,200.150 137.584 M216.954 137.734 C 216.954 138.065,217.148 138.335,217.385 138.335 C 217.647 138.335,217.864 138.718,217.937 139.310 L 218.058 140.285 218.107 139.290 C 218.158 138.228,217.720 137.134,217.244 137.134 C 217.085 137.134,216.954 137.404,216.954 137.734 M197.808 138.352 C 197.460 138.909,197.475 138.940,197.961 138.663 C 199.288 137.904,199.433 137.744,198.797 137.739 C 198.465 137.737,198.020 138.013,197.808 138.352 M174.252 139.430 C 174.363 139.718,174.117 139.842,173.400 139.859 C 172.846 139.872,172.570 139.953,172.787 140.040 C 173.468 140.313,175.890 139.823,175.762 139.439 C 175.697 139.244,175.296 139.071,174.871 139.055 C 174.337 139.034,174.145 139.151,174.252 139.430 M180.945 139.535 C 181.326 139.865,181.753 140.135,181.894 140.135 C 182.035 140.135,181.982 139.865,181.776 139.535 C 181.570 139.205,181.143 138.935,180.827 138.935 C 180.301 138.935,180.311 138.985,180.945 139.535 M194.749 139.535 C 194.749 139.700,194.479 139.835,194.149 139.835 C 193.818 139.835,193.547 139.936,193.546 140.060 C 193.543 140.330,192.090 141.035,191.538 141.035 C 191.323 141.035,191.148 141.144,191.148 141.277 C 191.148 141.409,190.675 142.034,190.098 142.665 C 189.520 143.295,189.051 143.896,189.056 143.999 C 189.060 144.102,189.660 143.545,190.389 142.761 C 191.117 141.977,191.848 141.335,192.012 141.335 C 192.264 141.335,195.541 139.664,195.924 139.341 C 195.993 139.282,195.756 139.235,195.399 139.235 C 195.041 139.235,194.749 139.370,194.749 139.535 M207.231 140.018 C 207.095 140.372,207.173 140.453,207.523 140.318 C 207.786 140.218,208.058 140.135,208.127 140.135 C 208.196 140.135,208.252 140.000,208.252 139.835 C 208.252 139.346,207.432 139.493,207.231 140.018 M168.834 140.285 C 168.729 140.559,168.833 140.735,169.102 140.735 C 169.344 140.735,169.542 140.533,169.542 140.285 C 169.542 140.038,169.422 139.835,169.274 139.835 C 169.127 139.835,168.929 140.038,168.834 140.285 M205.551 140.585 C 205.551 140.833,205.629 141.035,205.723 141.035 C 205.817 141.035,206.097 140.833,206.344 140.585 C 206.745 140.185,206.725 140.135,206.173 140.135 C 205.821 140.135,205.551 140.330,205.551 140.585 M165.866 141.060 C 165.578 141.377,165.418 141.635,165.511 141.635 C 165.902 141.635,166.842 140.992,166.842 140.725 C 166.842 140.286,166.451 140.420,165.866 141.060 M164.018 141.379 C 164.093 141.500,163.915 141.738,163.622 141.908 C 163.330 142.078,163.239 142.221,163.420 142.226 C 163.601 142.231,164.052 141.973,164.422 141.652 C 165.067 141.093,165.070 141.070,164.489 141.114 C 164.155 141.139,163.944 141.259,164.018 141.379 M221.909 143.245 C 221.956 144.604,222.121 145.392,222.393 145.561 C 222.991 145.932,223.108 145.302,222.555 144.690 C 222.300 144.409,222.035 143.505,221.964 142.682 C 221.894 141.859,221.869 142.112,221.909 143.245 M201.650 141.785 C 201.346 142.152,201.361 142.236,201.732 142.236 C 201.982 142.236,202.264 142.033,202.359 141.785 C 202.454 141.538,202.418 141.335,202.278 141.335 C 202.138 141.335,201.856 141.538,201.650 141.785 M162.041 142.068 C 162.041 142.497,161.842 142.578,161.024 142.483 C 160.286 142.396,160.049 142.469,160.156 142.750 C 160.246 142.985,160.070 143.136,159.704 143.136 C 159.374 143.136,159.026 143.338,158.931 143.586 C 158.836 143.833,158.889 144.036,159.049 144.036 C 159.209 144.036,159.340 143.901,159.340 143.736 C 159.340 143.571,159.602 143.436,159.922 143.436 C 160.243 143.436,160.588 143.301,160.690 143.136 C 160.792 142.971,161.142 142.836,161.467 142.836 C 162.060 142.836,162.580 142.075,162.228 141.722 C 162.125 141.620,162.041 141.775,162.041 142.068 M199.544 142.611 C 199.262 143.193,199.272 143.218,199.616 142.796 C 199.835 142.526,200.282 142.238,200.608 142.155 C 201.145 142.019,201.138 142.002,200.536 141.970 C 200.121 141.949,199.748 142.190,199.544 142.611 M174.944 142.536 C 174.944 142.701,175.146 142.836,175.394 142.836 C 175.641 142.836,175.844 142.701,175.844 142.536 C 175.844 142.371,175.641 142.236,175.394 142.236 C 175.146 142.236,174.944 142.371,174.944 142.536 M217.589 143.211 C 217.565 144.005,217.681 144.336,217.985 144.336 C 218.247 144.336,218.464 144.720,218.538 145.311 L 218.659 146.287 218.707 145.183 C 218.733 144.576,218.567 143.891,218.337 143.661 C 218.107 143.431,217.853 142.983,217.772 142.664 C 217.690 142.346,217.608 142.591,217.589 143.211 M197.641 143.286 C 197.540 143.550,197.637 143.736,197.877 143.736 C 198.102 143.736,198.363 143.533,198.458 143.286 C 198.560 143.022,198.462 142.836,198.222 142.836 C 197.998 142.836,197.736 143.038,197.641 143.286 M187.922 144.816 C 187.551 145.200,187.247 145.648,187.247 145.811 C 187.247 145.974,187.011 146.244,186.722 146.413 C 186.313 146.651,186.296 146.718,186.647 146.716 C 187.046 146.714,188.928 144.394,188.691 144.195 C 188.640 144.152,188.293 144.431,187.922 144.816 M156.191 145.029 C 155.862 145.225,155.289 145.696,154.918 146.075 C 154.546 146.454,154.010 146.724,153.726 146.675 C 153.408 146.621,153.164 146.817,153.089 147.187 C 153.023 147.517,152.519 148.226,151.968 148.762 C 151.418 149.299,151.095 149.737,151.252 149.737 C 151.408 149.737,152.388 148.893,153.429 147.862 C 154.470 146.830,155.719 145.690,156.205 145.328 C 157.162 144.615,157.154 144.453,156.191 145.029 M164.741 145.236 C 164.741 145.401,164.944 145.536,165.191 145.536 C 165.439 145.536,165.641 145.401,165.641 145.236 C 165.641 145.071,165.439 144.936,165.191 144.936 C 164.944 144.936,164.741 145.071,164.741 145.236 M162.941 145.986 C 162.941 146.234,163.076 146.437,163.241 146.437 C 163.406 146.437,163.541 146.234,163.541 145.986 C 163.541 145.739,163.406 145.536,163.241 145.536 C 163.076 145.536,162.941 145.739,162.941 145.986 M161.440 146.737 C 161.440 146.902,161.643 147.037,161.890 147.037 C 162.138 147.037,162.341 146.902,162.341 146.737 C 162.341 146.572,162.138 146.437,161.890 146.437 C 161.643 146.437,161.440 146.572,161.440 146.737 M192.653 146.812 C 192.650 147.165,192.870 147.329,193.323 147.313 C 193.774 147.297,193.849 147.233,193.548 147.118 C 193.301 147.024,192.999 146.798,192.878 146.617 C 192.742 146.413,192.656 146.488,192.653 146.812 M196.849 147.277 C 196.849 147.589,197.499 148.237,197.812 148.237 C 197.945 148.237,197.886 147.967,197.680 147.637 C 197.301 147.031,196.849 146.835,196.849 147.277 M246.562 148.312 C 246.397 148.964,246.406 148.967,246.827 148.405 C 247.206 147.897,247.262 147.888,247.262 148.330 C 247.262 148.609,247.464 148.837,247.712 148.837 C 248.484 148.837,249.319 149.949,249.443 151.144 C 249.554 152.216,249.565 152.198,249.612 150.863 C 249.649 149.820,249.550 149.437,249.244 149.437 C 249.015 149.437,248.749 149.235,248.654 148.987 C 248.559 148.740,248.274 148.537,248.021 148.537 C 247.769 148.537,247.562 148.335,247.562 148.087 C 247.562 147.379,246.751 147.562,246.562 148.312 M157.879 148.725 C 157.521 149.128,157.552 149.175,158.116 149.088 C 158.472 149.033,158.768 148.856,158.774 148.695 C 158.792 148.214,158.318 148.230,157.879 148.725 M201.275 149.340 C 201.647 149.599,201.950 149.982,201.950 150.192 C 201.950 150.402,202.153 150.651,202.401 150.746 C 202.648 150.841,202.851 150.854,202.851 150.776 C 202.851 150.458,201.229 148.838,200.926 148.853 C 200.747 148.862,200.904 149.081,201.275 149.340 M218.455 149.284 C 218.455 149.392,218.672 149.697,218.937 149.963 C 219.380 150.406,219.411 150.400,219.312 149.891 C 219.213 149.379,218.455 148.842,218.455 149.284 M187.847 149.887 C 187.847 150.135,187.982 150.338,188.147 150.338 C 188.312 150.338,188.447 150.135,188.447 149.887 C 188.447 149.640,188.312 149.437,188.147 149.437 C 187.982 149.437,187.847 149.640,187.847 149.887 M245.185 149.937 C 245.172 150.295,244.992 150.656,244.786 150.739 C 244.492 150.858,244.494 150.895,244.796 150.914 C 245.251 150.942,245.582 150.218,245.363 149.672 C 245.278 149.461,245.198 149.580,245.185 149.937 M156.050 150.618 C 155.661 151.344,155.659 151.538,156.039 151.538 C 156.204 151.538,156.339 151.279,156.339 150.963 C 156.339 150.646,156.508 150.319,156.714 150.236 C 156.997 150.122,156.999 150.079,156.725 150.061 C 156.524 150.048,156.220 150.299,156.050 150.618 M222.737 151.538 C 222.737 152.281,222.796 152.584,222.867 152.213 C 222.939 151.842,222.939 151.234,222.867 150.863 C 222.796 150.491,222.737 150.795,222.737 151.538 M196.624 151.745 C 196.913 151.820,197.149 152.007,197.149 152.160 C 197.149 152.313,197.284 152.438,197.449 152.438 C 197.614 152.438,197.749 152.236,197.749 151.988 C 197.749 151.689,197.473 151.550,196.924 151.573 C 196.417 151.594,196.301 151.660,196.624 151.745 M154.839 152.438 C 154.839 152.603,155.041 152.738,155.289 152.738 C 155.536 152.738,155.739 152.603,155.739 152.438 C 155.739 152.273,155.536 152.138,155.289 152.138 C 155.041 152.138,154.839 152.273,154.839 152.438 M202.272 152.863 C 201.797 153.434,201.939 153.716,202.521 153.357 C 202.743 153.220,202.869 152.942,202.801 152.740 C 202.714 152.478,202.561 152.514,202.272 152.863 M149.737 153.038 C 149.737 153.203,149.940 153.338,150.188 153.338 C 150.435 153.338,150.638 153.203,150.638 153.038 C 150.638 152.873,150.435 152.738,150.188 152.738 C 149.940 152.738,149.737 152.873,149.737 153.038 M219.055 153.188 C 219.055 153.436,219.274 153.638,219.542 153.638 C 219.940 153.638,219.961 153.557,219.655 153.188 C 219.449 152.941,219.230 152.738,219.168 152.738 C 219.106 152.738,219.055 152.941,219.055 153.188 M242.686 153.291 C 242.233 153.564,241.861 153.963,241.861 154.175 C 241.861 154.451,241.968 154.473,242.236 154.250 C 242.442 154.079,242.948 153.673,243.361 153.348 C 244.267 152.636,243.833 152.599,242.686 153.291 M196.253 154.232 C 195.798 155.081,196.117 155.400,196.768 154.748 C 197.140 154.377,197.185 154.154,196.939 153.908 C 196.693 153.663,196.511 153.748,196.253 154.232 M241.260 154.789 C 241.260 154.981,240.990 155.139,240.660 155.139 C 240.330 155.139,240.060 155.274,240.060 155.439 C 240.060 155.604,239.915 155.739,239.739 155.739 C 239.562 155.739,239.229 155.908,238.999 156.114 C 237.953 157.052,237.653 157.239,237.201 157.239 C 236.934 157.239,236.514 157.442,236.266 157.689 C 235.756 158.200,235.922 158.269,236.688 157.865 C 236.975 157.714,237.716 157.370,238.335 157.100 C 238.953 156.831,239.460 156.482,239.460 156.325 C 239.460 156.168,239.629 156.036,239.835 156.032 C 240.402 156.022,241.733 154.911,241.481 154.659 C 241.360 154.538,241.260 154.596,241.260 154.789 M194.627 155.889 C 194.147 156.302,193.929 156.639,194.142 156.639 C 194.472 156.639,195.649 155.549,195.649 155.243 C 195.649 155.045,195.496 155.142,194.627 155.889 M219.655 155.467 C 219.655 155.617,219.848 155.739,220.084 155.739 C 220.320 155.739,220.572 156.043,220.643 156.414 C 220.760 157.018,220.778 157.006,220.814 156.299 C 220.843 155.741,220.679 155.463,220.255 155.352 C 219.925 155.266,219.655 155.317,219.655 155.467 M221.779 156.264 C 221.792 156.720,221.875 156.888,221.964 156.639 C 222.052 156.392,222.337 156.020,222.597 155.814 C 223.013 155.484,222.991 155.439,222.413 155.439 C 221.890 155.439,221.760 155.608,221.779 156.264 M200.229 156.733 C 199.695 157.094,199.256 157.579,199.254 157.810 C 199.251 158.107,199.405 158.057,199.775 157.644 C 200.064 157.320,200.634 156.827,201.042 156.547 C 201.450 156.268,201.653 156.047,201.492 156.058 C 201.332 156.068,200.763 156.372,200.229 156.733 M245.484 157.759 C 245.112 158.576,245.113 158.577,245.736 158.012 C 246.381 157.429,246.552 156.939,246.110 156.939 C 245.971 156.939,245.690 157.308,245.484 157.759 M150.338 158.236 C 150.338 158.478,150.549 158.757,150.808 158.856 C 151.121 158.976,151.215 159.239,151.088 159.638 C 150.953 160.066,151.033 160.240,151.368 160.240 C 151.930 160.240,151.947 160.104,151.490 159.251 C 150.942 158.226,150.338 157.694,150.338 158.236 M190.548 158.090 C 190.548 158.282,190.143 158.440,189.647 158.440 C 189.152 158.440,188.747 158.565,188.747 158.718 C 188.747 158.871,188.511 159.058,188.222 159.133 C 187.817 159.239,187.847 159.278,188.354 159.305 C 188.716 159.324,189.095 159.205,189.197 159.040 C 189.299 158.875,189.637 158.740,189.947 158.740 C 190.543 158.740,191.033 158.225,190.728 157.920 C 190.629 157.820,190.548 157.897,190.548 158.090 M234.659 158.118 C 234.659 158.270,234.422 158.457,234.134 158.533 C 233.716 158.642,233.740 158.677,234.247 158.705 C 234.598 158.724,235.053 158.537,235.259 158.290 C 235.565 157.921,235.544 157.839,235.146 157.839 C 234.878 157.839,234.659 157.965,234.659 158.118 M243.835 158.756 C 243.518 159.076,243.349 159.428,243.460 159.539 C 243.570 159.649,243.661 159.582,243.661 159.390 C 243.661 159.197,243.931 159.040,244.261 159.040 C 244.594 159.040,244.861 158.840,244.861 158.590 C 244.861 157.994,244.538 158.047,243.835 158.756 M157.427 158.881 C 157.530 159.147,157.742 159.322,157.899 159.270 C 158.349 159.120,158.220 158.600,157.706 158.493 C 157.386 158.426,157.299 158.546,157.427 158.881 M186.947 159.319 C 186.947 159.473,186.643 159.663,186.272 159.742 C 185.801 159.842,185.862 159.871,186.473 159.838 C 187.273 159.794,188.028 159.040,187.272 159.040 C 187.093 159.040,186.947 159.165,186.947 159.319 M231.358 159.490 C 231.358 159.737,231.435 159.940,231.529 159.940 C 231.624 159.940,231.903 159.737,232.151 159.490 C 232.551 159.090,232.532 159.040,231.979 159.040 C 231.627 159.040,231.358 159.235,231.358 159.490 M159.940 160.090 C 159.940 160.338,160.075 160.540,160.240 160.540 C 160.405 160.540,160.540 160.338,160.540 160.090 C 160.540 159.842,160.405 159.640,160.240 159.640 C 160.075 159.640,159.940 159.842,159.940 160.090 M229.557 160.068 C 229.557 160.303,229.321 160.558,229.032 160.633 C 228.565 160.756,228.562 160.774,229.011 160.805 C 229.288 160.825,229.694 160.661,229.914 160.441 C 230.133 160.221,230.514 160.097,230.760 160.164 C 231.153 160.271,231.153 160.247,230.758 159.967 C 230.121 159.517,229.557 159.565,229.557 160.068 M162.232 160.448 C 161.894 160.786,162.027 161.140,162.491 161.140 C 162.738 161.140,162.941 161.013,162.941 160.858 C 162.941 160.480,162.472 160.209,162.232 160.448 M182.146 160.668 C 182.146 160.904,181.909 161.158,181.620 161.234 C 181.219 161.338,181.252 161.379,181.760 161.406 C 182.143 161.426,182.560 161.186,182.746 160.840 C 183.002 160.361,182.974 160.240,182.606 160.240 C 182.353 160.240,182.146 160.433,182.146 160.668 M195.242 160.681 C 194.936 160.913,194.757 161.280,194.844 161.496 C 194.962 161.791,195.007 161.796,195.025 161.515 C 195.038 161.309,195.319 161.140,195.649 161.140 C 195.982 161.140,196.249 160.940,196.249 160.690 C 196.249 160.135,195.966 160.132,195.242 160.681 M227.339 161.015 C 227.227 161.308,227.294 161.445,227.513 161.372 C 227.961 161.222,228.208 160.540,227.814 160.540 C 227.653 160.540,227.439 160.754,227.339 161.015 M178.545 161.418 C 178.545 161.571,178.308 161.764,178.020 161.847 C 177.731 161.930,177.889 161.974,178.371 161.944 C 179.271 161.889,179.875 161.140,179.020 161.140 C 178.758 161.140,178.545 161.265,178.545 161.418 M225.356 161.568 C 225.356 161.804,225.120 162.058,224.831 162.134 C 224.347 162.260,224.346 162.274,224.821 162.306 C 225.104 162.325,225.480 162.071,225.656 161.740 C 225.874 161.334,225.878 161.140,225.667 161.140 C 225.496 161.140,225.356 161.333,225.356 161.568 M223.556 162.151 C 223.556 162.396,223.320 162.658,223.031 162.734 C 222.588 162.850,222.582 162.877,222.994 162.906 C 223.627 162.951,224.307 162.170,223.871 161.899 C 223.697 161.793,223.556 161.906,223.556 162.151 M154.667 163.397 C 155.283 163.864,155.628 163.790,155.301 163.261 C 155.192 163.085,154.875 162.945,154.596 162.950 C 154.150 162.959,154.159 163.013,154.667 163.397 M220.648 163.616 C 220.176 164.249,220.369 164.900,220.996 164.789 C 221.314 164.733,221.750 164.928,221.965 165.222 C 222.180 165.516,222.356 165.596,222.356 165.401 C 222.356 165.206,222.086 164.878,221.755 164.672 C 221.015 164.209,220.980 163.631,221.680 163.448 C 222.098 163.339,222.074 163.303,221.567 163.276 C 221.216 163.256,220.803 163.410,220.648 163.616 M188.192 163.826 C 188.258 164.024,188.410 164.176,188.530 164.164 C 188.888 164.126,188.819 163.715,188.432 163.586 C 188.234 163.520,188.126 163.628,188.192 163.826 M232.258 163.991 C 232.258 164.239,232.393 164.441,232.558 164.441 C 232.723 164.441,232.858 164.239,232.858 163.991 C 232.858 163.743,232.723 163.541,232.558 163.541 C 232.393 163.541,232.258 163.743,232.258 163.991 M156.718 164.333 C 157.009 164.418,157.170 164.611,157.075 164.764 C 156.981 164.916,157.126 165.041,157.397 165.041 C 158.171 165.041,157.727 164.298,156.916 164.236 C 156.471 164.202,156.394 164.240,156.718 164.333 M229.557 164.591 C 229.557 164.839,229.692 165.041,229.857 165.041 C 230.023 165.041,230.158 164.916,230.158 164.762 C 230.158 164.608,230.461 164.424,230.833 164.353 C 231.321 164.259,231.238 164.211,230.533 164.182 C 229.848 164.153,229.557 164.275,229.557 164.591 M225.356 165.191 C 225.356 165.439,225.559 165.641,225.806 165.641 C 226.054 165.641,226.257 165.516,226.257 165.363 C 226.257 165.210,226.493 165.024,226.782 164.948 C 227.071 164.873,226.868 164.795,226.332 164.776 C 225.649 164.752,225.356 164.876,225.356 165.191 M166.404 166.521 C 166.206 166.842,166.520 167.057,167.067 166.974 C 167.273 166.942,167.577 166.900,167.742 166.879 C 167.907 166.859,168.042 166.707,168.042 166.542 C 168.042 166.163,166.637 166.145,166.404 166.521 M174.044 166.692 C 173.721 167.081,173.857 167.142,175.048 167.142 C 176.149 167.142,176.391 167.051,176.253 166.692 C 176.157 166.441,175.711 166.242,175.248 166.242 C 174.791 166.242,174.249 166.444,174.044 166.692 " stroke="none" fill="#c7c7c7" fill-rule="evenodd"></path><path id="path3" d="M168.642 140.085 C 168.642 140.278,168.338 140.451,167.967 140.470 C 167.411 140.499,167.390 140.530,167.849 140.648 C 168.447 140.802,169.186 140.278,168.847 139.940 C 168.734 139.827,168.642 139.892,168.642 140.085 M201.991 153.938 C 201.964 154.186,201.858 154.726,201.756 155.139 C 201.611 155.718,201.652 155.812,201.933 155.550 C 202.134 155.364,202.240 154.824,202.169 154.350 C 202.098 153.876,202.018 153.691,201.991 153.938 M165.188 166.537 C 165.289 166.700,165.692 166.806,166.085 166.773 C 167.014 166.697,166.733 166.242,165.756 166.242 C 165.340 166.242,165.087 166.373,165.188 166.537 " stroke="none" fill="#b4b4b4" fill-rule="evenodd"></path><path id="path4" d="M219.999 125.581 C 220.271 125.911,220.559 126.452,220.639 126.782 C 220.780 127.359,220.787 127.358,220.820 126.753 C 220.840 126.407,220.551 125.867,220.180 125.553 C 219.510 124.986,219.509 124.986,219.999 125.581 M220.855 128.732 C 220.855 128.897,221.058 129.032,221.305 129.032 C 221.553 129.032,221.755 128.897,221.755 128.732 C 221.755 128.567,221.553 128.432,221.305 128.432 C 221.058 128.432,220.855 128.567,220.855 128.732 M216.528 132.295 C 216.413 132.481,216.462 132.633,216.636 132.633 C 216.811 132.633,216.965 132.869,216.978 133.158 C 216.991 133.453,217.066 133.524,217.149 133.320 C 217.361 132.797,216.795 131.863,216.528 132.295 M221.455 135.860 C 221.455 136.026,221.658 136.329,221.905 136.534 C 222.157 136.743,222.356 136.775,222.356 136.608 C 222.356 136.443,222.153 136.139,221.905 135.934 C 221.654 135.726,221.455 135.693,221.455 135.860 M182.671 140.034 C 182.877 140.117,183.046 140.376,183.046 140.610 C 183.046 140.844,183.181 141.035,183.346 141.035 C 183.511 141.035,183.646 140.765,183.646 140.435 C 183.646 140.006,183.454 139.842,182.971 139.859 C 182.599 139.872,182.464 139.950,182.671 140.034 M181.545 141.935 C 181.545 142.101,181.748 142.236,181.995 142.236 C 182.243 142.236,182.446 142.101,182.446 141.935 C 182.446 141.770,182.243 141.635,181.995 141.635 C 181.748 141.635,181.545 141.770,181.545 141.935 M222.084 143.136 C 222.057 143.772,222.578 144.514,222.856 144.236 C 222.984 144.108,222.944 143.909,222.767 143.795 C 222.590 143.680,222.368 143.383,222.274 143.136 C 222.122 142.736,222.101 142.736,222.084 143.136 M155.739 144.786 C 155.435 145.153,155.450 145.236,155.820 145.236 C 156.070 145.236,156.353 145.034,156.448 144.786 C 156.543 144.539,156.506 144.336,156.366 144.336 C 156.227 144.336,155.944 144.539,155.739 144.786 M217.654 145.058 C 217.654 145.289,217.834 145.410,218.055 145.326 C 218.275 145.241,218.455 145.052,218.455 144.904 C 218.455 144.757,218.275 144.636,218.055 144.636 C 217.834 144.636,217.654 144.826,217.654 145.058 M237.251 156.789 C 237.156 157.037,237.151 157.239,237.240 157.239 C 237.329 157.239,237.605 157.037,237.852 156.789 C 238.243 156.399,238.244 156.339,237.863 156.339 C 237.621 156.339,237.346 156.542,237.251 156.789 " stroke="none" fill="#acacac" fill-rule="evenodd"></path></g></svg>